<mxfile host="app.diagrams.net" modified="2022-03-26T11:04:16.476Z" agent="5.0 (Windows NT 10.0; Win64; x64) AppleWebKit/537.36 (KHTML, like Gecko) Chrome/99.0.4844.82 Safari/537.36" etag="DHFWm95FcK4EcTbWjbr5" version="17.2.4" type="github">
  <diagram id="Ltp8TQ0fu8d2ZAkVBXLa" name="Page-1">
    <mxGraphModel dx="1422" dy="794" grid="1" gridSize="10" guides="1" tooltips="1" connect="1" arrows="1" fold="1" page="1" pageScale="1" pageWidth="827" pageHeight="1169" math="0" shadow="0">
      <root>
        <mxCell id="0" />
        <mxCell id="1" parent="0" />
        <mxCell id="Ik_Fj1TfC5-VF20Q5Txx-2" style="edgeStyle=orthogonalEdgeStyle;rounded=0;orthogonalLoop=1;jettySize=auto;html=1;" edge="1" parent="1" source="Ik_Fj1TfC5-VF20Q5Txx-1" target="Ik_Fj1TfC5-VF20Q5Txx-3">
          <mxGeometry relative="1" as="geometry">
            <mxPoint x="410" y="200" as="targetPoint" />
          </mxGeometry>
        </mxCell>
        <mxCell id="Ik_Fj1TfC5-VF20Q5Txx-5" style="edgeStyle=orthogonalEdgeStyle;rounded=0;orthogonalLoop=1;jettySize=auto;html=1;" edge="1" parent="1" source="Ik_Fj1TfC5-VF20Q5Txx-1" target="Ik_Fj1TfC5-VF20Q5Txx-6">
          <mxGeometry relative="1" as="geometry">
            <mxPoint x="160" y="410" as="targetPoint" />
          </mxGeometry>
        </mxCell>
        <mxCell id="Ik_Fj1TfC5-VF20Q5Txx-1" value="" style="rounded=0;whiteSpace=wrap;html=1;" vertex="1" parent="1">
          <mxGeometry x="350" y="380" width="120" height="60" as="geometry" />
        </mxCell>
        <mxCell id="Ik_Fj1TfC5-VF20Q5Txx-3" value="" style="ellipse;whiteSpace=wrap;html=1;" vertex="1" parent="1">
          <mxGeometry x="350" y="160" width="120" height="80" as="geometry" />
        </mxCell>
        <mxCell id="Ik_Fj1TfC5-VF20Q5Txx-4" style="edgeStyle=orthogonalEdgeStyle;rounded=0;orthogonalLoop=1;jettySize=auto;html=1;" edge="1" parent="1" source="Ik_Fj1TfC5-VF20Q5Txx-3" target="Ik_Fj1TfC5-VF20Q5Txx-3">
          <mxGeometry relative="1" as="geometry" />
        </mxCell>
        <mxCell id="Ik_Fj1TfC5-VF20Q5Txx-6" value="" style="triangle;whiteSpace=wrap;html=1;" vertex="1" parent="1">
          <mxGeometry x="130" y="370" width="60" height="80" as="geometry" />
        </mxCell>
      </root>
    </mxGraphModel>
  </diagram>
</mxfile>
